<svg width="15" height="14" viewBox="0 0 15 14" fill="none" xmlns="http://www.w3.org/2000/svg">
<path d="M11.086 5.64471L7.136 1.69471C6.95384 1.50611 6.85305 1.25351 6.85533 0.991311C6.8576 0.729114 6.96277 0.478301 7.14818 0.292893C7.33359 0.107485 7.5844 0.00231622 7.8466 3.78026e-05C8.1088 -0.00224062 8.3614 0.0985538 8.55 0.280712L14.207 5.93771C14.3002 6.03036 14.3741 6.14053 14.4246 6.26186C14.4751 6.38319 14.501 6.5133 14.501 6.64471C14.501 6.77612 14.4751 6.90623 14.4246 7.02757C14.3741 7.1489 14.3002 7.25906 14.207 7.35171L8.55 13.0087C8.45775 13.1042 8.34741 13.1804 8.2254 13.2328C8.1034 13.2852 7.97218 13.3128 7.8394 13.314C7.70662 13.3151 7.57494 13.2898 7.45205 13.2395C7.32915 13.1893 7.2175 13.115 7.12361 13.0211C7.02971 12.9272 6.95546 12.8156 6.90518 12.6927C6.8549 12.5698 6.8296 12.4381 6.83075 12.3053C6.8319 12.1725 6.85949 12.0413 6.9119 11.9193C6.96431 11.7973 7.04049 11.687 7.136 11.5947L11.086 7.64471H1.5C1.23478 7.64471 0.98043 7.53935 0.792893 7.35182C0.605357 7.16428 0.5 6.90993 0.5 6.64471C0.5 6.3795 0.605357 6.12514 0.792893 5.9376C0.98043 5.75007 1.23478 5.64471 1.5 5.64471H11.086Z" fill="black"/>
</svg>
