<svg width="15" height="14" viewBox="0 0 15 14" fill="none" xmlns="http://www.w3.org/2000/svg">
  <path d="M3.914 5.64471L7.864 1.69471C8.04616 1.50611 8.14695 1.25351 8.14467 0.991311C8.1424 0.729114 8.03723 0.478301 7.85182 0.292893C7.66641 0.107485 7.4156 0.00231622 7.1534 3.78026e-05C6.8912 -0.00224062 6.6386 0.0985538 6.45 0.280712L0.793 5.93771C0.699841 6.03036 0.625938 6.14053 0.575442 6.26186C0.524946 6.38319 0.499023 6.5133 0.499023 6.64471C0.499023 6.77612 0.524946 6.90623 0.575442 7.02757C0.625938 7.1489 0.699841 7.25906 0.793 7.35171L6.45 13.0087C6.54225 13.1042 6.65259 13.1804 6.7746 13.2328C6.8966 13.2852 7.02782 13.3128 7.1606 13.314C7.29338 13.3151 7.42506 13.2898 7.54795 13.2395C7.67085 13.1893 7.7825 13.115 7.87639 13.0211C7.97029 12.9272 8.04454 12.8156 8.09482 12.6927C8.1451 12.5698 8.1704 12.4381 8.16925 12.3053C8.1681 12.1725 8.14051 12.0413 8.0881 11.9193C8.03569 11.7973 7.95951 11.687 7.864 11.5947L3.914 7.64471H13.5C13.7652 7.64471 14.0196 7.53935 14.2071 7.35182C14.3946 7.16428 14.5 6.90993 14.5 6.64471C14.5 6.3795 14.3946 6.12514 14.2071 5.9376C14.0196 5.75007 13.7652 5.64471 13.5 5.64471H3.914Z" fill="white"/>
</svg>
