<svg width="19" height="19" viewBox="0 0 19 19" fill="none" xmlns="http://www.w3.org/2000/svg">
<path d="M17.3901 2.30607L18.0398 1.65385C18.2122 1.4784 18.309 1.24044 18.309 0.992314C18.309 0.74419 18.2122 0.506229 18.0398 0.330779C17.8675 0.155329 17.6338 0.0567627 17.3901 0.0567627C17.1464 0.0567627 16.9127 0.155329 16.7404 0.330779L15.4593 1.64453L12.8695 4.28135L7.09524 10.1513C6.14907 9.51571 5.00485 9.26034 3.88431 9.43469C2.76377 9.60905 1.74668 10.2007 1.03013 11.095C0.313576 11.9893 -0.0514261 13.1226 0.0058485 14.2753C0.0631231 15.428 0.538597 16.518 1.34014 17.3341C2.14168 18.1502 3.21222 18.6344 4.34432 18.6927C5.47642 18.751 6.58948 18.3793 7.46783 17.6498C8.34617 16.9202 8.92726 15.8846 9.0985 14.7437C9.26974 13.6028 9.01894 12.4378 8.39469 11.4744L13.5101 6.25664L15.4501 8.24124C15.5354 8.3275 15.6366 8.39581 15.7479 8.44226C15.8591 8.48871 15.9783 8.51239 16.0985 8.51196C16.2187 8.51153 16.3377 8.48699 16.4486 8.43974C16.5596 8.39249 16.6603 8.32345 16.745 8.23658C16.8297 8.14971 16.8968 8.04669 16.9424 7.93342C16.988 7.82015 17.0113 7.69884 17.0109 7.57641C17.0104 7.45399 16.9863 7.33284 16.9399 7.2199C16.8935 7.10696 16.8257 7.00443 16.7404 6.91817L14.8004 4.94289L16.0998 3.62913L16.7404 4.28135C16.8251 4.36823 16.9258 4.43726 17.0367 4.48451C17.1477 4.53176 17.2666 4.5563 17.3869 4.55673C17.5071 4.55716 17.6263 4.53348 17.7375 4.48703C17.8488 4.44058 17.9499 4.37227 18.0353 4.28601C18.1206 4.19975 18.1884 4.09722 18.2348 3.98428C18.2812 3.87134 18.3053 3.7502 18.3057 3.62777C18.3062 3.50534 18.2829 3.38403 18.2373 3.27076C18.1917 3.15749 18.1246 3.05447 18.0398 2.9676L17.3901 2.30607ZM4.57872 16.8319C4.03575 16.8319 3.50497 16.6679 3.05351 16.3608C2.60205 16.0536 2.25018 15.6171 2.04239 15.1063C1.83461 14.5956 1.78024 14.0336 1.88617 13.4913C1.9921 12.9491 2.25356 12.4511 2.6375 12.0601C3.02143 11.6692 3.5106 11.403 4.04314 11.2951C4.57567 11.1873 5.12766 11.2426 5.6293 11.4542C6.13094 11.6658 6.5597 12.024 6.86135 12.4837C7.16301 12.9434 7.32402 13.4838 7.32402 14.0367C7.32402 14.778 7.03478 15.489 6.51994 16.0132C6.0051 16.5374 5.30682 16.8319 4.57872 16.8319Z" fill="#A4A4A4"/>
</svg>
