<svg width="303" height="141" viewBox="0 0 303 141" fill="none" xmlns="http://www.w3.org/2000/svg">
<g opacity="0.4">
<mask id="path-1-outside-1_0_4041" maskUnits="userSpaceOnUse" x="-1" y="-1" width="306" height="144" fill="black">
<rect fill="white" x="-1" y="-1" width="306" height="144"/>
<path d="M0.638489 0.434677L42.712 0.434677L78.4024 87.4644L80.0497 87.4644L115.74 0.434676L157.814 0.434676L157.814 141L124.731 141L124.731 54.6567L123.565 54.6567L89.7959 140.108L68.6562 140.108L34.8876 54.1762L33.7208 54.1762L33.7208 141L0.63849 141L0.638489 0.434677ZM188.669 141L188.669 0.434676L246.734 0.434675C257.258 0.434675 266.341 2.33359 273.982 6.13142C281.67 9.88348 287.595 15.2828 291.759 22.3294C295.923 29.3302 298.005 37.6351 298.005 47.244C298.005 56.9903 295.877 65.2723 291.622 72.09C287.366 78.8621 281.326 84.0326 273.502 87.6016C265.678 91.1249 256.412 92.8866 245.705 92.8866L208.985 92.8866L208.985 66.1188L239.39 66.1188C244.515 66.1188 248.793 65.4553 252.225 64.1283C255.703 62.7556 258.334 60.6966 260.118 57.9512C261.903 55.16 262.795 51.5909 262.795 47.244C262.795 42.8971 261.903 39.3052 260.118 36.4683C258.334 33.5856 255.703 31.435 252.225 30.0165C248.747 28.5523 244.469 27.8202 239.39 27.8202L222.643 27.8202L222.643 141L188.669 141ZM267.805 76.7573L302.809 141L265.746 141L231.428 76.7573L267.805 76.7573Z"/>
</mask>
<path d="M0.638489 0.434677L0.638489 -0.702249L-0.498436 -0.702249L-0.498436 0.434677L0.638489 0.434677ZM42.712 0.434677L43.7639 0.00329553L43.4746 -0.702249L42.712 -0.702249L42.712 0.434677ZM78.4024 87.4644L77.3505 87.8958L77.6398 88.6013L78.4024 88.6013L78.4024 87.4644ZM80.0497 87.4644L80.0497 88.6013L80.8122 88.6013L81.1016 87.8958L80.0497 87.4644ZM115.74 0.434676L115.74 -0.702249L114.978 -0.702249L114.688 0.00329505L115.74 0.434676ZM157.814 0.434676L158.951 0.434676L158.951 -0.70225L157.814 -0.70225L157.814 0.434676ZM157.814 141L157.814 142.137L158.951 142.137L158.951 141L157.814 141ZM124.731 141L123.594 141L123.594 142.137L124.731 142.137L124.731 141ZM124.731 54.6567L125.868 54.6567L125.868 53.5197L124.731 53.5197L124.731 54.6567ZM123.565 54.6567L123.565 53.5197L122.791 53.5197L122.507 54.2388L123.565 54.6567ZM89.7959 140.108L89.7959 141.245L90.5691 141.245L90.8532 140.526L89.7959 140.108ZM68.6562 140.108L67.598 140.524L67.8814 141.245L68.6562 141.245L68.6562 140.108ZM34.8876 54.1762L35.9457 53.7604L35.6623 53.0393L34.8876 53.0393L34.8876 54.1762ZM33.7208 54.1762L33.7208 53.0393L32.5838 53.0393L32.5838 54.1762L33.7208 54.1762ZM33.7208 141L33.7208 142.137L34.8577 142.137L34.8577 141L33.7208 141ZM0.63849 141L-0.498435 141L-0.498435 142.137L0.63849 142.137L0.63849 141ZM0.638489 1.5716L42.712 1.5716L42.712 -0.702249L0.638489 -0.702249L0.638489 1.5716ZM41.6601 0.866058L77.3505 87.8958L79.4543 87.033L43.7639 0.00329553L41.6601 0.866058ZM78.4024 88.6013L80.0497 88.6013L80.0497 86.3275L78.4024 86.3275L78.4024 88.6013ZM81.1016 87.8958L116.792 0.866057L114.688 0.00329505L78.9978 87.033L81.1016 87.8958ZM115.74 1.5716L157.814 1.5716L157.814 -0.70225L115.74 -0.702249L115.74 1.5716ZM156.677 0.434676L156.677 141L158.951 141L158.951 0.434676L156.677 0.434676ZM157.814 139.863L124.731 139.863L124.731 142.137L157.814 142.137L157.814 139.863ZM125.868 141L125.868 54.6567L123.594 54.6567L123.594 141L125.868 141ZM124.731 53.5197L123.565 53.5197L123.565 55.7936L124.731 55.7936L124.731 53.5197ZM122.507 54.2388L88.7385 139.69L90.8532 140.526L124.622 55.0745L122.507 54.2388ZM89.7959 138.971L68.6562 138.971L68.6562 141.245L89.7959 141.245L89.7959 138.971ZM69.7143 139.692L35.9457 53.7604L33.8294 54.592L67.598 140.524L69.7143 139.692ZM34.8876 53.0393L33.7208 53.0393L33.7208 55.3131L34.8876 55.3131L34.8876 53.0393ZM32.5838 54.1762L32.5838 141L34.8577 141L34.8577 54.1762L32.5838 54.1762ZM33.7208 139.863L0.63849 139.863L0.63849 142.137L33.7208 142.137L33.7208 139.863ZM1.77542 141L1.77541 0.434677L-0.498436 0.434677L-0.498435 141L1.77542 141ZM188.669 141L187.532 141L187.532 142.137L188.669 142.137L188.669 141ZM188.669 0.434676L188.669 -0.70225L187.532 -0.70225L187.532 0.434676L188.669 0.434676ZM273.982 6.13141L273.476 7.14956L273.484 7.15313L273.982 6.13141ZM291.759 22.3294L290.78 22.9078L290.782 22.9106L291.759 22.3294ZM291.622 72.09L292.584 72.695L292.586 72.692L291.622 72.09ZM273.502 87.6017L273.969 88.6383L273.974 88.636L273.502 87.6017ZM208.985 92.8866L207.848 92.8866L207.848 94.0235L208.985 94.0235L208.985 92.8866ZM208.985 66.1188L208.985 64.9818L207.848 64.9818L207.848 66.1188L208.985 66.1188ZM252.225 64.1283L252.635 65.1888L252.642 65.1859L252.225 64.1283ZM260.118 57.9512L261.071 58.5708L261.076 58.5636L260.118 57.9512ZM260.118 36.4683L259.151 37.0667L259.156 37.0736L260.118 36.4683ZM252.225 30.0165L251.784 31.0644L251.796 31.0693L252.225 30.0165ZM222.643 27.8202L222.643 26.6833L221.506 26.6833L221.506 27.8202L222.643 27.8202ZM222.643 141L222.643 142.137L223.78 142.137L223.78 141L222.643 141ZM267.805 76.7573L268.804 76.2133L268.481 75.6203L267.805 75.6203L267.805 76.7573ZM302.809 141L302.809 142.137L304.724 142.137L303.808 140.456L302.809 141ZM265.746 141L264.743 141.536L265.065 142.137L265.746 142.137L265.746 141ZM231.428 76.7573L231.428 75.6203L229.532 75.6203L230.426 77.2929L231.428 76.7573ZM189.806 141L189.806 0.434676L187.532 0.434676L187.532 141L189.806 141ZM188.669 1.5716L246.734 1.5716L246.734 -0.70225L188.669 -0.70225L188.669 1.5716ZM246.734 1.5716C257.123 1.5716 266.025 3.44596 273.476 7.14953L274.488 5.1133C266.657 1.22122 257.394 -0.70225 246.734 -0.70225L246.734 1.5716ZM273.484 7.15313C280.98 10.8122 286.735 16.0617 290.78 22.9078L292.738 21.751C288.455 14.5039 282.359 8.95473 274.481 5.1097L273.484 7.15313ZM290.782 22.9106C294.824 29.7062 296.868 37.8026 296.868 47.244L299.142 47.244C299.142 37.4676 297.022 28.9542 292.736 21.7482L290.782 22.9106ZM296.868 47.244C296.868 56.8229 294.778 64.8859 290.657 71.4881L292.586 72.692C296.976 65.6586 299.142 57.1576 299.142 47.244L296.868 47.244ZM290.659 71.4851C286.531 78.0549 280.668 83.0831 273.03 86.5673L273.974 88.636C281.984 84.9821 288.202 79.6693 292.584 72.695L290.659 71.4851ZM273.035 86.565C265.389 90.0079 256.29 91.7496 245.705 91.7496L245.705 94.0235C256.534 94.0235 265.966 92.2419 273.969 88.6383L273.035 86.565ZM245.705 91.7496L208.985 91.7496L208.985 94.0235L245.705 94.0235L245.705 91.7496ZM210.122 92.8866L210.122 66.1188L207.848 66.1188L207.848 92.8866L210.122 92.8866ZM208.985 67.2557L239.39 67.2557L239.39 64.9818L208.985 64.9818L208.985 67.2557ZM239.39 67.2557C244.604 67.2557 249.032 66.5819 252.635 65.1887L251.815 63.0679C248.554 64.3287 244.426 64.9818 239.39 64.9818L239.39 67.2557ZM252.642 65.1859C256.307 63.7392 259.14 61.5416 261.071 58.5708L259.165 57.3315C257.527 59.8516 255.098 61.7721 251.808 63.0708L252.642 65.1859ZM261.076 58.5636C263.009 55.5406 263.932 51.7415 263.932 47.244L261.658 47.244C261.658 51.4404 260.797 54.7794 259.16 57.3387L261.076 58.5636ZM263.932 47.244C263.932 42.7455 263.008 38.9277 261.08 35.8629L259.156 37.0736C260.797 39.6827 261.658 43.0487 261.658 47.244L263.932 47.244ZM261.085 35.8698C259.16 32.7607 256.329 30.4628 252.654 28.9638L251.796 31.0693C255.076 32.4072 257.507 34.4104 259.151 37.0667L261.085 35.8698ZM252.666 28.9687C249.01 27.4291 244.571 26.6833 239.39 26.6833L239.39 28.9571C244.367 28.9571 248.485 29.6755 251.784 31.0644L252.666 28.9687ZM239.39 26.6833L222.643 26.6833L222.643 28.9571L239.39 28.9571L239.39 26.6833ZM221.506 27.8202L221.506 141L223.78 141L223.78 27.8202L221.506 27.8202ZM222.643 139.863L188.669 139.863L188.669 142.137L222.643 142.137L222.643 139.863ZM266.807 77.3012L301.811 141.544L303.808 140.456L268.804 76.2133L266.807 77.3012ZM302.809 139.863L265.746 139.863L265.746 142.137L302.809 142.137L302.809 139.863ZM266.749 140.464L232.431 76.2216L230.426 77.2929L264.743 141.536L266.749 140.464ZM231.428 77.8942L267.805 77.8942L267.805 75.6203L231.428 75.6203L231.428 77.8942Z" fill="white" mask="url(#path-1-outside-1_0_4041)"/>
</g>
</svg>
