<svg width="365" height="53" viewBox="0 0 365 53" fill="none" xmlns="http://www.w3.org/2000/svg">
<g opacity="0.4">
<mask id="path-1-outside-1_0_4043" maskUnits="userSpaceOnUse" x="-1" y="-1" width="368" height="55" fill="black">
<rect fill="white" x="-1" y="-1" width="368" height="55"/>
<path d="M29.4962 16.2111C29.3298 14.3809 28.5894 12.9583 27.275 11.9434C25.9772 10.9118 24.1221 10.396 21.7095 10.396C20.1122 10.396 18.7812 10.604 17.7163 11.02C16.6515 11.4359 15.8529 12.0099 15.3204 12.742C14.788 13.4575 14.5135 14.2811 14.4968 15.2128C14.4636 15.9782 14.6133 16.652 14.9461 17.2344C15.2955 17.8167 15.7946 18.3325 16.4435 18.7817C17.109 19.2143 17.9077 19.597 18.8394 19.9298C19.7712 20.2625 20.8194 20.5537 21.984 20.8033L26.3765 21.8016C28.9056 22.3506 31.1351 23.0827 33.0651 23.9978C35.0118 24.9129 36.6424 26.0027 37.9568 27.2672C39.2878 28.5317 40.2945 29.9876 40.9766 31.6348C41.6588 33.282 42.0082 35.1288 42.0248 37.1753C42.0082 40.4031 41.1929 43.1734 39.579 45.4861C37.9651 47.7988 35.6441 49.5708 32.6159 50.802C29.6044 52.0333 25.9689 52.6489 21.7095 52.6489C17.4335 52.6489 13.7065 52.0083 10.5286 50.7272C7.3507 49.446 4.87992 47.4994 3.11626 44.8871C1.35261 42.2749 0.445824 38.9722 0.395909 34.9791L12.2257 34.9791C12.3255 36.6263 12.7665 37.9989 13.5485 39.097C14.3305 40.1952 15.4036 41.0271 16.768 41.5928C18.1489 42.1585 19.7462 42.4413 21.5598 42.4413C23.2236 42.4413 24.6379 42.2167 25.8025 41.7675C26.9838 41.3182 27.8906 40.6943 28.5229 39.8957C29.1551 39.097 29.4796 38.1819 29.4962 37.1504C29.4796 36.1853 29.1801 35.3617 28.5978 34.6796C28.0154 33.9808 27.117 33.3818 25.9024 32.8826C24.7044 32.3669 23.1737 31.8927 21.3102 31.4601L15.9693 30.2122C11.5435 29.1973 8.05783 27.5584 5.51217 25.2956C2.96652 23.0162 1.70201 19.9381 1.71865 16.0614C1.70201 12.9001 2.55056 10.1298 4.2643 7.75055C5.97804 5.37128 8.349 3.51612 11.3772 2.18506C14.4053 0.853996 17.8578 0.188465 21.7345 0.188465C25.6944 0.188465 29.1302 0.862314 32.0419 2.21001C34.9702 3.54107 37.2413 5.41288 38.8552 7.82543C40.4692 10.238 41.2927 13.0332 41.326 16.2111L29.4962 16.2111ZM50.106 10.9201L50.106 0.887272L93.3073 0.887271L93.3073 10.9201L77.8087 10.9201L77.8087 52L65.6295 52L65.6295 10.9201L50.106 10.9201ZM102.855 52L102.855 0.887271L138.494 0.887271L138.494 10.9201L115.209 10.9201L115.209 21.4022L136.672 21.4022L136.672 31.4601L115.209 31.4601L115.209 41.9671L138.494 41.9671L138.494 52L102.855 52ZM160.801 52L147.523 52L164.769 0.887271L181.216 0.887271L198.461 52L185.184 52L173.18 13.7653L172.78 13.7653L160.801 52ZM159.029 31.8843L186.781 31.8843L186.781 41.2683L159.029 41.2683L159.029 31.8843ZM207.479 0.887271L222.777 0.887271L235.755 32.5332L236.354 32.5332L249.332 0.88727L264.631 0.88727L264.631 52L252.602 52L252.602 20.6036L252.177 20.6036L239.898 51.6756L232.211 51.6756L219.932 20.4289L219.508 20.4289L219.508 52L207.479 52L207.479 0.887271ZM275.851 52L275.851 0.88727L311.49 0.88727L311.49 10.9201L288.204 10.9201L288.204 21.4022L309.668 21.4022L309.668 31.4601L288.204 31.4601L288.204 41.9671L311.49 41.9671L311.49 52L275.851 52ZM322.741 52L322.741 0.88727L343.854 0.88727C347.681 0.88727 350.984 1.57776 353.763 2.95873C356.558 4.32307 358.712 6.28638 360.227 8.84868C361.741 11.3943 362.498 14.4142 362.498 17.9082C362.498 21.4522 361.724 24.4637 360.177 26.9428C358.629 29.4052 356.433 31.2854 353.588 32.5832C350.743 33.8643 347.373 34.5049 343.48 34.5049L330.128 34.5049L330.128 24.7715L341.184 24.7715C343.048 24.7715 344.603 24.5302 345.851 24.0477C347.116 23.5486 348.072 22.7999 348.721 21.8016C349.37 20.7866 349.695 19.4888 349.695 17.9082C349.695 16.3276 349.37 15.0215 348.721 13.9899C348.072 12.9417 347.116 12.1597 345.851 11.6439C344.587 11.1115 343.031 10.8453 341.184 10.8453L335.094 10.8453L335.094 52L322.741 52ZM351.516 28.6399L364.245 52L350.768 52L338.289 28.6399L351.516 28.6399Z"/>
</mask>
<path d="M29.4962 16.2111L28.364 16.314L28.458 17.348L29.4962 17.348L29.4962 16.2111ZM27.275 11.9434L26.5676 12.8334L26.5738 12.8384L26.5802 12.8433L27.275 11.9434ZM17.7163 11.02L17.3027 9.96097L17.3027 9.96097L17.7163 11.02ZM15.3204 12.742L16.2326 13.4208L16.2399 13.4107L15.3204 12.742ZM14.4968 15.2128L15.6327 15.2622L15.6333 15.2477L15.6336 15.2331L14.4968 15.2128ZM14.9461 17.2344L13.9589 17.7984L13.9649 17.8089L13.9712 17.8193L14.9461 17.2344ZM16.4435 18.7817L15.7964 19.7165L15.81 19.7259L15.8239 19.735L16.4435 18.7817ZM18.8394 19.9298L19.2218 18.8591L19.2218 18.8591L18.8394 19.9298ZM21.984 20.8033L22.236 19.6945L22.2223 19.6916L21.984 20.8033ZM26.3765 21.8016L26.1246 22.9103L26.1353 22.9126L26.3765 21.8016ZM33.0651 23.9978L32.578 25.0251L32.5815 25.0267L33.0651 23.9978ZM37.9568 27.2672L37.1685 28.0866L37.1737 28.0915L37.9568 27.2672ZM40.9766 31.6348L39.9262 32.0698L40.9766 31.6348ZM42.0248 37.1753L43.1617 37.1812L43.1618 37.1736L43.1617 37.1661L42.0248 37.1753ZM39.579 45.4861L38.6467 44.8355L38.6467 44.8355L39.579 45.4861ZM32.6159 50.802L32.1877 49.7488L32.1856 49.7497L32.6159 50.802ZM10.5286 50.7272L10.9537 49.6727L10.5286 50.7272ZM0.395909 34.9791L0.395909 33.8421L-0.755316 33.8421L-0.740927 34.9933L0.395909 34.9791ZM12.2257 34.9791L13.3606 34.9103L13.2958 33.8421L12.2257 33.8421L12.2257 34.9791ZM13.5485 39.097L12.6224 39.7565L13.5485 39.097ZM16.768 41.5928L16.3325 42.643L16.337 42.6448L16.768 41.5928ZM25.8025 41.7675L25.3984 40.7048L25.3934 40.7067L25.8025 41.7675ZM28.5229 39.8957L27.6315 39.19L28.5229 39.8957ZM29.4962 37.1504L30.633 37.1687L30.6333 37.1497L30.633 37.1308L29.4962 37.1504ZM28.5978 34.6796L27.7243 35.4075L27.7331 35.4177L28.5978 34.6796ZM25.9024 32.8826L25.4528 33.9269L25.4614 33.9306L25.4702 33.9342L25.9024 32.8826ZM21.3102 31.4601L21.0515 32.5672L21.0531 32.5675L21.3102 31.4601ZM15.9693 30.2122L16.228 29.1051L16.2234 29.104L15.9693 30.2122ZM5.51217 25.2956L4.75375 26.1426L4.75684 26.1453L5.51217 25.2956ZM1.71865 16.0614L2.85562 16.0662L2.85556 16.0554L1.71865 16.0614ZM4.2643 7.75055L3.34177 7.08607L4.2643 7.75055ZM11.3772 2.18506L11.8347 3.22587L11.8347 3.22587L11.3772 2.18506ZM32.0419 2.21001L31.5643 3.2418L31.5714 3.24503L32.0419 2.21001ZM38.8552 7.82543L39.8002 7.19327L39.8002 7.19327L38.8552 7.82543ZM41.326 16.2111L41.326 17.348L42.4749 17.348L42.4629 16.1992L41.326 16.2111ZM30.6285 16.1082C30.4369 14.0003 29.5627 12.2735 27.9699 11.0435L26.5802 12.8433C27.6161 13.6432 28.2228 14.7615 28.364 16.314L30.6285 16.1082ZM27.9825 11.0534C26.4099 9.80339 24.2657 9.25911 21.7095 9.25911L21.7095 11.533C23.9784 11.533 25.5446 12.0203 26.5676 12.8334L27.9825 11.0534ZM21.7095 9.25911C20.0228 9.25911 18.5405 9.47746 17.3027 9.96097L18.13 12.079C19.0219 11.7306 20.2017 11.533 21.7095 11.533L21.7095 9.25911ZM17.3027 9.96097C16.0883 10.4353 15.091 11.1246 14.401 12.0733L16.2399 13.4107C16.6147 12.8953 17.2147 12.4365 18.13 12.079L17.3027 9.96097ZM14.4083 12.0633C13.7274 12.9783 13.3808 14.0346 13.3601 15.1925L15.6336 15.2331C15.6462 14.5276 15.8486 13.9367 16.2325 13.4208L14.4083 12.0633ZM13.361 15.1634C13.3197 16.112 13.5052 17.0043 13.9589 17.7984L15.9332 16.6703C15.7214 16.2997 15.6074 15.8444 15.6327 15.2622L13.361 15.1634ZM13.9712 17.8193C14.4161 18.5609 15.036 19.1901 15.7964 19.7165L17.0907 17.8469C16.5532 17.4749 16.1748 17.0725 15.921 16.6494L13.9712 17.8193ZM15.8239 19.735C16.5792 20.2259 17.4614 20.6449 18.457 21.0004L19.2218 18.8591C18.3539 18.5491 17.6389 18.2027 17.0631 17.8285L15.8239 19.735ZM18.457 21.0004C19.4442 21.353 20.5417 21.6569 21.7458 21.915L22.2223 19.6916C21.097 19.4504 20.0981 19.172 19.2218 18.8591L18.457 21.0004ZM21.7321 21.9119L26.1246 22.9102L26.6285 20.6929L22.236 19.6946L21.7321 21.9119ZM26.1353 22.9126C28.5967 23.447 30.7409 24.1541 32.578 25.0251L33.5522 22.9705C31.5292 22.0113 29.2145 21.2543 26.6178 20.6905L26.1353 22.9126ZM32.5815 25.0267C34.4355 25.8983 35.9579 26.9219 37.1686 28.0866L38.745 26.4479C37.3268 25.0835 35.5881 23.9276 33.5488 22.9689L32.5815 25.0267ZM37.1737 28.0915C38.3929 29.2497 39.3068 30.5741 39.9262 32.0698L42.027 31.1998C41.2821 29.4011 40.1827 27.8137 38.7398 26.443L37.1737 28.0915ZM39.9262 32.0698C40.5448 33.5635 40.8723 35.2628 40.8879 37.1846L43.1617 37.1661C43.1441 34.9948 42.7728 33.0005 42.027 31.1998L39.9262 32.0698ZM40.8879 37.1695C40.8723 40.201 40.1101 42.7384 38.6467 44.8355L40.5114 46.1368C42.2757 43.6084 43.1441 40.6052 43.1617 37.1812L40.8879 37.1695ZM38.6467 44.8355C37.1774 46.9409 35.0455 48.5869 32.1877 49.7488L33.0441 51.8552C36.2426 50.5548 38.7528 48.6567 40.5114 46.1368L38.6467 44.8355ZM32.1856 49.7497C29.3458 50.9107 25.8647 51.512 21.7095 51.512L21.7095 53.7858C26.0731 53.7858 29.863 53.1558 33.0461 51.8544L32.1856 49.7497ZM21.7095 51.512C17.5443 51.512 13.9676 50.8877 10.9537 49.6727L10.1035 51.7816C13.4455 53.1289 17.3227 53.7858 21.7095 53.7858L21.7095 51.512ZM10.9537 49.6727C7.96687 48.4686 5.68426 46.6589 4.05853 44.251L2.17399 45.5233C4.07558 48.3398 6.73453 50.4235 10.1035 51.7816L10.9537 49.6727ZM4.05853 44.251C2.44838 41.8661 1.58062 38.7952 1.53275 34.9649L-0.740927 34.9933C-0.688977 39.1493 0.256837 42.6838 2.17399 45.5233L4.05853 44.251ZM0.395909 36.116L12.2257 36.116L12.2257 33.8421L0.395909 33.8421L0.395909 36.116ZM11.0909 35.0478C11.2007 36.8599 11.6917 38.4497 12.6224 39.7565L14.4746 38.4375C13.8412 37.5481 13.4504 36.3926 13.3606 34.9103L11.0909 35.0478ZM12.6224 39.7565C13.5397 41.0448 14.7907 42.0037 16.3325 42.643L17.2034 40.5425C16.0165 40.0504 15.1212 39.3456 14.4746 38.4375L12.6224 39.7565ZM16.337 42.6448C17.8808 43.2772 19.6294 43.5782 21.5598 43.5782L21.5598 41.3044C19.863 41.3044 18.4171 41.0397 17.1989 40.5407L16.337 42.6448ZM21.5598 43.5782C23.3196 43.5782 24.881 43.3415 26.2117 42.8282L25.3934 40.7067C24.3947 41.0919 23.1276 41.3044 21.5598 41.3044L21.5598 43.5782ZM26.2066 42.8302C27.5338 42.3255 28.6274 41.5953 29.4143 40.6014L27.6315 39.19C27.1538 39.7933 26.4339 40.311 25.3984 40.7048L26.2066 42.8302ZM29.4143 40.6014C30.2038 39.6041 30.6124 38.4466 30.633 37.1687L28.3594 37.132C28.3468 37.9172 28.1065 38.59 27.6315 39.19L29.4143 40.6014ZM30.633 37.1308C30.6122 35.9235 30.2296 34.8401 29.4625 33.9414L27.7331 35.4177C28.1306 35.8834 28.347 36.4472 28.3595 37.17L30.633 37.1308ZM29.4712 33.9517C28.7294 33.0616 27.6495 32.3715 26.3345 31.8311L25.4702 33.9342C26.5844 34.3921 27.3014 34.8999 27.7243 35.4074L29.4712 33.9517ZM26.352 31.8384C25.0704 31.2866 23.4692 30.7941 21.5673 30.3526L21.0531 32.5675C22.8781 32.9912 24.3384 33.4471 25.4528 33.9269L26.352 31.8384ZM21.5689 30.353L16.228 29.1051L15.7106 31.3193L21.0515 32.5672L21.5689 30.353ZM16.2234 29.104C11.9241 28.1181 8.63077 26.5465 6.26751 24.4458L4.75684 26.1453C7.48488 28.5703 11.163 30.2764 15.7152 31.3204L16.2234 29.104ZM6.27059 24.4486C4.00102 22.4164 2.84011 19.6665 2.85557 16.0662L0.581736 16.0565C0.563911 20.2097 1.93202 23.6159 4.75375 26.1426L6.27059 24.4486ZM2.85556 16.0554C2.84008 13.1148 3.62487 10.5836 5.18684 8.41503L3.34177 7.08607C1.47626 9.67606 0.563941 12.6854 0.581741 16.0673L2.85556 16.0554ZM5.18684 8.41503C6.76732 6.22077 8.96801 4.48594 11.8347 3.22587L10.9197 1.14424C7.72999 2.5463 5.18877 4.5218 3.34177 7.08607L5.18684 8.41503ZM11.8347 3.22587C14.696 1.96815 17.9885 1.32539 21.7345 1.32539L21.7345 -0.948461C17.727 -0.948461 14.1147 -0.260158 10.9197 1.14424L11.8347 3.22587ZM21.7345 1.32539C25.5671 1.32539 28.8331 1.97761 31.5643 3.24178L32.5194 1.17825C29.4273 -0.252986 25.8216 -0.948461 21.7345 -0.948461L21.7345 1.32539ZM31.5714 3.24503C34.3287 4.49833 36.4264 6.23949 37.9103 8.45758L39.8002 7.19327C38.0562 4.58627 35.6117 2.58382 32.5123 1.17499L31.5714 3.24503ZM37.9103 8.45758C39.3897 10.6691 40.158 13.2443 40.1892 16.223L42.4629 16.1992C42.4275 12.8221 41.5486 9.80686 39.8002 7.19327L37.9103 8.45758ZM41.326 15.0742L29.4962 15.0742L29.4962 17.348L41.326 17.348L41.326 15.0742ZM50.106 10.9201L48.9691 10.9201L48.9691 12.0571L50.106 12.0571L50.106 10.9201ZM50.106 0.887272L50.106 -0.249654L48.9691 -0.249654L48.9691 0.887272L50.106 0.887272ZM93.3073 0.887271L94.4442 0.887271L94.4442 -0.249654L93.3073 -0.249654L93.3073 0.887271ZM93.3073 10.9201L93.3073 12.0571L94.4442 12.0571L94.4442 10.9201L93.3073 10.9201ZM77.8087 10.9201L77.8087 9.78322L76.6718 9.78322L76.6718 10.9201L77.8087 10.9201ZM77.8087 52L77.8087 53.1369L78.9457 53.1369L78.9457 52L77.8087 52ZM65.6295 52L64.4926 52L64.4926 53.1369L65.6295 53.1369L65.6295 52ZM65.6295 10.9201L66.7664 10.9201L66.7664 9.78322L65.6295 9.78322L65.6295 10.9201ZM51.243 10.9201L51.243 0.887272L48.9691 0.887272L48.9691 10.9201L51.243 10.9201ZM50.106 2.0242L93.3073 2.0242L93.3073 -0.249654L50.106 -0.249654L50.106 2.0242ZM92.1703 0.887271L92.1703 10.9201L94.4442 10.9201L94.4442 0.887271L92.1703 0.887271ZM93.3073 9.78322L77.8087 9.78322L77.8087 12.0571L93.3073 12.0571L93.3073 9.78322ZM76.6718 10.9201L76.6718 52L78.9457 52L78.9457 10.9201L76.6718 10.9201ZM77.8087 50.8631L65.6295 50.8631L65.6295 53.1369L77.8087 53.1369L77.8087 50.8631ZM66.7664 52L66.7664 10.9201L64.4926 10.9201L64.4926 52L66.7664 52ZM65.6295 9.78322L50.106 9.78322L50.106 12.0571L65.6295 12.0571L65.6295 9.78322ZM102.855 52L101.718 52L101.718 53.1369L102.855 53.1369L102.855 52ZM102.855 0.887271L102.855 -0.249654L101.718 -0.249654L101.718 0.887271L102.855 0.887271ZM138.494 0.887271L139.631 0.887271L139.631 -0.249654L138.494 -0.249654L138.494 0.887271ZM138.494 10.9201L138.494 12.0571L139.631 12.0571L139.631 10.9201L138.494 10.9201ZM115.209 10.9201L115.209 9.78322L114.072 9.78322L114.072 10.9201L115.209 10.9201ZM115.209 21.4022L114.072 21.4022L114.072 22.5392L115.209 22.5392L115.209 21.4022ZM136.672 21.4022L137.809 21.4022L137.809 20.2653L136.672 20.2653L136.672 21.4022ZM136.672 31.4601L136.672 32.597L137.809 32.597L137.809 31.4601L136.672 31.4601ZM115.209 31.4601L115.209 30.3231L114.072 30.3231L114.072 31.4601L115.209 31.4601ZM115.209 41.9671L114.072 41.9671L114.072 43.1041L115.209 43.1041L115.209 41.9671ZM138.494 41.9671L139.631 41.9671L139.631 40.8302L138.494 40.8302L138.494 41.9671ZM138.494 52L138.494 53.1369L139.631 53.1369L139.631 52L138.494 52ZM103.992 52L103.992 0.887271L101.718 0.887271L101.718 52L103.992 52ZM102.855 2.0242L138.494 2.0242L138.494 -0.249654L102.855 -0.249654L102.855 2.0242ZM137.357 0.887271L137.357 10.9201L139.631 10.9201L139.631 0.887271L137.357 0.887271ZM138.494 9.78322L115.209 9.78322L115.209 12.0571L138.494 12.0571L138.494 9.78322ZM114.072 10.9201L114.072 21.4022L116.346 21.4022L116.346 10.9201L114.072 10.9201ZM115.209 22.5392L136.672 22.5392L136.672 20.2653L115.209 20.2653L115.209 22.5392ZM135.535 21.4022L135.535 31.4601L137.809 31.4601L137.809 21.4022L135.535 21.4022ZM136.672 30.3231L115.209 30.3231L115.209 32.597L136.672 32.597L136.672 30.3231ZM114.072 31.4601L114.072 41.9671L116.346 41.9671L116.346 31.4601L114.072 31.4601ZM115.209 43.1041L138.494 43.1041L138.494 40.8302L115.209 40.8302L115.209 43.1041ZM137.357 41.9671L137.357 52L139.631 52L139.631 41.9671L137.357 41.9671ZM138.494 50.8631L102.855 50.8631L102.855 53.1369L138.494 53.1369L138.494 50.8631ZM160.801 52L160.801 53.1369L161.636 53.1369L161.886 52.3399L160.801 52ZM147.523 52L146.446 51.6365L145.94 53.1369L147.523 53.1369L147.523 52ZM164.769 0.887271L164.769 -0.249654L163.953 -0.249654L163.692 0.523801L164.769 0.887271ZM181.216 0.887271L182.293 0.523801L182.032 -0.249655L181.216 -0.249655L181.216 0.887271ZM198.461 52L198.461 53.1369L200.045 53.1369L199.539 51.6365L198.461 52ZM185.184 52L184.099 52.3406L184.349 53.1369L185.184 53.1369L185.184 52ZM173.18 13.7653L174.264 13.4247L174.014 12.6284L173.18 12.6284L173.18 13.7653ZM172.78 13.7653L172.78 12.6284L171.945 12.6284L171.695 13.4254L172.78 13.7653ZM159.029 31.8843L159.029 30.7474L157.892 30.7474L157.892 31.8843L159.029 31.8843ZM186.781 31.8843L187.918 31.8843L187.918 30.7474L186.781 30.7474L186.781 31.8843ZM186.781 41.2683L186.781 42.4052L187.918 42.4052L187.918 41.2683L186.781 41.2683ZM159.029 41.2683L157.892 41.2683L157.892 42.4052L159.029 42.4052L159.029 41.2683ZM160.801 50.8631L147.523 50.8631L147.523 53.1369L160.801 53.1369L160.801 50.8631ZM148.601 52.3635L165.846 1.25074L163.692 0.523801L146.446 51.6365L148.601 52.3635ZM164.769 2.0242L181.216 2.0242L181.216 -0.249655L164.769 -0.249654L164.769 2.0242ZM180.139 1.25074L197.384 52.3635L199.539 51.6365L182.293 0.523801L180.139 1.25074ZM198.461 50.8631L185.184 50.8631L185.184 53.1369L198.461 53.1369L198.461 50.8631ZM186.269 51.6594L174.264 13.4247L172.095 14.1058L184.099 52.3406L186.269 51.6594ZM173.18 12.6284L172.78 12.6284L172.78 14.9022L173.18 14.9022L173.18 12.6284ZM171.695 13.4254L159.716 51.6601L161.886 52.3399L173.865 14.1052L171.695 13.4254ZM159.029 33.0213L186.781 33.0213L186.781 30.7474L159.029 30.7474L159.029 33.0213ZM185.644 31.8843L185.644 41.2683L187.918 41.2683L187.918 31.8843L185.644 31.8843ZM186.781 40.1314L159.029 40.1314L159.029 42.4052L186.781 42.4052L186.781 40.1314ZM160.166 41.2683L160.166 31.8843L157.892 31.8843L157.892 41.2683L160.166 41.2683ZM207.479 0.88727L207.479 -0.249655L206.342 -0.249655L206.342 0.88727L207.479 0.88727ZM222.777 0.88727L223.829 0.455889L223.54 -0.249655L222.777 -0.249655L222.777 0.88727ZM235.755 32.5332L234.703 32.9646L234.993 33.6702L235.755 33.6702L235.755 32.5332ZM236.354 32.5332L236.354 33.6702L237.117 33.6702L237.406 32.9646L236.354 32.5332ZM249.332 0.88727L249.332 -0.249655L248.57 -0.249655L248.28 0.455889L249.332 0.88727ZM264.631 0.88727L265.768 0.88727L265.768 -0.249655L264.631 -0.249655L264.631 0.88727ZM264.631 52L264.631 53.1369L265.768 53.1369L265.768 52L264.631 52ZM252.602 52L251.465 52L251.465 53.1369L252.602 53.1369L252.602 52ZM252.602 20.6036L253.738 20.6036L253.738 19.4667L252.602 19.4667L252.602 20.6036ZM252.177 20.6036L252.177 19.4667L251.404 19.4667L251.12 20.1858L252.177 20.6036ZM239.898 51.6756L239.898 52.8125L240.671 52.8125L240.956 52.0934L239.898 51.6756ZM232.211 51.6756L231.153 52.0914L231.437 52.8125L232.211 52.8125L232.211 51.6756ZM219.932 20.4289L220.99 20.0131L220.707 19.292L219.932 19.292L219.932 20.4289ZM219.508 20.4289L219.508 19.292L218.371 19.292L218.371 20.4289L219.508 20.4289ZM219.508 52L219.508 53.1369L220.645 53.1369L220.645 52L219.508 52ZM207.479 52L206.342 52L206.342 53.1369L207.479 53.1369L207.479 52ZM207.479 2.0242L222.777 2.0242L222.777 -0.249655L207.479 -0.249655L207.479 2.0242ZM221.726 1.31865L234.703 32.9646L236.807 32.1019L223.829 0.455889L221.726 1.31865ZM235.755 33.6702L236.354 33.6702L236.354 31.3963L235.755 31.3963L235.755 33.6702ZM237.406 32.9646L250.384 1.31865L248.28 0.455889L235.302 32.1019L237.406 32.9646ZM249.332 2.0242L264.631 2.0242L264.631 -0.249655L249.332 -0.249655L249.332 2.0242ZM263.494 0.88727L263.494 52L265.768 52L265.768 0.88727L263.494 0.88727ZM264.631 50.8631L252.602 50.8631L252.602 53.1369L264.631 53.1369L264.631 50.8631ZM253.738 52L253.738 20.6036L251.465 20.6036L251.465 52L253.738 52ZM252.602 19.4667L252.177 19.4667L252.177 21.7405L252.602 21.7405L252.602 19.4667ZM251.12 20.1858L238.841 51.2577L240.956 52.0934L253.235 21.0215L251.12 20.1858ZM239.898 50.5386L232.211 50.5386L232.211 52.8125L239.898 52.8125L239.898 50.5386ZM233.269 51.2597L220.99 20.0131L218.874 20.8447L231.153 52.0914L233.269 51.2597ZM219.932 19.292L219.508 19.292L219.508 21.5658L219.932 21.5658L219.932 19.292ZM218.371 20.4289L218.371 52L220.645 52L220.645 20.4289L218.371 20.4289ZM219.508 50.8631L207.479 50.8631L207.479 53.1369L219.508 53.1369L219.508 50.8631ZM208.615 52L208.615 0.88727L206.342 0.88727L206.342 52L208.615 52ZM275.851 52L274.714 52L274.714 53.1369L275.851 53.1369L275.851 52ZM275.851 0.88727L275.851 -0.249655L274.714 -0.249655L274.714 0.88727L275.851 0.88727ZM311.49 0.88727L312.627 0.88727L312.627 -0.249655L311.49 -0.249655L311.49 0.88727ZM311.49 10.9201L311.49 12.0571L312.627 12.0571L312.627 10.9201L311.49 10.9201ZM288.204 10.9201L288.204 9.78321L287.068 9.78321L287.068 10.9201L288.204 10.9201ZM288.204 21.4022L287.068 21.4022L287.068 22.5392L288.204 22.5392L288.204 21.4022ZM309.668 21.4022L310.805 21.4022L310.805 20.2653L309.668 20.2653L309.668 21.4022ZM309.668 31.4601L309.668 32.597L310.805 32.597L310.805 31.4601L309.668 31.4601ZM288.204 31.4601L288.204 30.3231L287.068 30.3231L287.068 31.4601L288.204 31.4601ZM288.204 41.9671L287.068 41.9671L287.068 43.1041L288.204 43.1041L288.204 41.9671ZM311.49 41.9671L312.627 41.9671L312.627 40.8302L311.49 40.8302L311.49 41.9671ZM311.49 52L311.49 53.1369L312.627 53.1369L312.627 52L311.49 52ZM276.987 52L276.987 0.88727L274.714 0.88727L274.714 52L276.987 52ZM275.851 2.0242L311.49 2.0242L311.49 -0.249655L275.851 -0.249655L275.851 2.0242ZM310.353 0.88727L310.353 10.9201L312.627 10.9201L312.627 0.88727L310.353 0.88727ZM311.49 9.78321L288.204 9.78321L288.204 12.0571L311.49 12.0571L311.49 9.78321ZM287.068 10.9201L287.068 21.4022L289.341 21.4022L289.341 10.9201L287.068 10.9201ZM288.204 22.5392L309.668 22.5392L309.668 20.2653L288.204 20.2653L288.204 22.5392ZM308.531 21.4022L308.531 31.4601L310.805 31.4601L310.805 21.4022L308.531 21.4022ZM309.668 30.3231L288.204 30.3231L288.204 32.597L309.668 32.597L309.668 30.3231ZM287.068 31.4601L287.068 41.9671L289.341 41.9671L289.341 31.4601L287.068 31.4601ZM288.204 43.1041L311.49 43.1041L311.49 40.8302L288.204 40.8302L288.204 43.1041ZM310.353 41.9671L310.353 52L312.627 52L312.627 41.9671L310.353 41.9671ZM311.49 50.8631L275.851 50.8631L275.851 53.1369L311.49 53.1369L311.49 50.8631ZM322.741 52L321.604 52L321.604 53.1369L322.741 53.1369L322.741 52ZM322.741 0.88727L322.741 -0.249656L321.604 -0.249656L321.604 0.88727L322.741 0.88727ZM353.763 2.95873L353.257 3.97687L353.264 3.98045L353.763 2.95873ZM360.227 8.84868L359.248 9.42707L359.249 9.42986L360.227 8.84868ZM360.177 26.9428L361.139 27.5477L361.141 27.5448L360.177 26.9428ZM353.588 32.5832L354.055 33.6198L354.06 33.6175L353.588 32.5832ZM330.128 34.5049L328.991 34.5049L328.991 35.6418L330.128 35.6418L330.128 34.5049ZM330.128 24.7715L330.128 23.6346L328.991 23.6346L328.991 24.7715L330.128 24.7715ZM345.851 24.0477L346.261 25.1082L346.268 25.1052L345.851 24.0477ZM348.721 21.8016L349.674 22.4212L349.679 22.414L348.721 21.8016ZM348.721 13.9899L347.754 14.5883L347.759 14.5953L348.721 13.9899ZM345.851 11.6439L345.41 12.6918L345.422 12.6966L345.851 11.6439ZM335.094 10.8453L335.094 9.70834L333.958 9.70834L333.958 10.8453L335.094 10.8453ZM335.094 52L335.094 53.1369L336.231 53.1369L336.231 52L335.094 52ZM351.516 28.6399L352.515 28.0959L352.192 27.503L351.516 27.503L351.516 28.6399ZM364.245 52L364.245 53.1369L366.159 53.1369L365.243 51.456L364.245 52ZM350.768 52L349.765 52.5357L350.086 53.1369L350.768 53.1369L350.768 52ZM338.289 28.6399L338.289 27.503L336.393 27.503L337.286 29.1756L338.289 28.6399ZM323.877 52L323.877 0.88727L321.604 0.88727L321.604 52L323.877 52ZM322.741 2.0242L343.854 2.0242L343.854 -0.249656L322.741 -0.249656L322.741 2.0242ZM343.854 2.0242C347.546 2.0242 350.668 2.69012 353.257 3.97685L354.269 1.94062C351.3 0.465391 347.817 -0.249656 343.854 -0.249656L343.854 2.0242ZM353.264 3.98045C355.869 5.25182 357.852 7.06526 359.248 9.42706L361.205 8.27029C359.573 5.5075 357.247 3.39432 354.261 1.93702L353.264 3.98045ZM359.249 9.42986C360.641 11.7703 361.361 14.5817 361.361 17.9082L363.635 17.9082C363.635 14.2467 362.84 11.0183 361.204 8.26749L359.249 9.42986ZM361.361 17.9082C361.361 21.2848 360.625 24.0773 359.212 26.3408L361.141 27.5448C362.823 24.8501 363.635 21.6195 363.635 17.9082L361.361 17.9082ZM359.214 26.3379C357.794 28.598 355.775 30.3359 353.116 31.5488L354.06 33.6175C357.091 32.2349 359.465 30.2125 361.139 27.5477L359.214 26.3379ZM353.121 31.5465C350.454 32.7473 347.251 33.3679 343.48 33.3679L343.48 35.6418C347.496 35.6418 351.031 34.9813 354.055 33.6198L353.121 31.5465ZM343.48 33.3679L330.128 33.3679L330.128 35.6418L343.48 35.6418L343.48 33.3679ZM331.265 34.5049L331.265 24.7715L328.991 24.7715L328.991 34.5049L331.265 34.5049ZM330.128 25.9084L341.184 25.9084L341.184 23.6346L330.128 23.6346L330.128 25.9084ZM341.184 25.9084C343.137 25.9084 344.842 25.6569 346.261 25.1081L345.441 22.9873C344.364 23.4036 342.958 23.6346 341.184 23.6346L341.184 25.9084ZM346.268 25.1052C347.72 24.5321 348.879 23.6448 349.674 22.4212L347.768 21.1819C347.266 21.9549 346.511 22.565 345.434 22.9902L346.268 25.1052ZM349.679 22.414C350.476 21.1672 350.831 19.6394 350.831 17.9082L348.558 17.9082C348.558 19.3383 348.264 20.406 347.763 21.1891L349.679 22.414ZM350.831 17.9082C350.831 16.176 350.476 14.644 349.684 13.3845L347.759 14.5953C348.264 15.399 348.558 16.4792 348.558 17.9082L350.831 17.9082ZM349.688 13.3915C348.899 12.1169 347.742 11.1875 346.28 10.5912L345.422 12.6966C346.489 13.1319 347.246 13.7665 347.754 14.5883L349.688 13.3915ZM346.292 10.5961C344.849 9.9883 343.133 9.70834 341.184 9.70834L341.184 11.9822C342.929 11.9822 344.324 12.2347 345.41 12.6917L346.292 10.5961ZM341.184 9.70834L335.094 9.70834L335.094 11.9822L341.184 11.9822L341.184 9.70834ZM333.958 10.8453L333.958 52L336.231 52L336.231 10.8453L333.958 10.8453ZM335.094 50.8631L322.741 50.8631L322.741 53.1369L335.094 53.1369L335.094 50.8631ZM350.518 29.1839L363.246 52.544L365.243 51.456L352.515 28.0959L350.518 29.1839ZM364.245 50.8631L350.768 50.8631L350.768 53.1369L364.245 53.1369L364.245 50.8631ZM351.77 51.4643L339.292 28.1042L337.286 29.1756L349.765 52.5357L351.77 51.4643ZM338.289 29.7768L351.516 29.7768L351.516 27.503L338.289 27.503L338.289 29.7768Z" fill="white" mask="url(#path-1-outside-1_0_4043)"/>
</g>
</svg>
